<?xml version="1.0" encoding="UTF-8"?>
<!DOCTYPE svg PUBLIC "-//W3C//DTD SVG 1.1//EN" "http://www.w3.org/Graphics/SVG/1.1/DTD/svg11.dtd">
<svg xmlns="http://www.w3.org/2000/svg" version="1.1" width="142px" height="139px" style="shape-rendering:geometricPrecision; text-rendering:geometricPrecision; image-rendering:optimizeQuality; fill-rule:evenodd; clip-rule:evenodd" xmlns:xlink="http://www.w3.org/1999/xlink">
<g><path style="opacity:1" fill="#f9f9f9" d="M -0.5,-0.5 C 46.8333,-0.5 94.1667,-0.5 141.5,-0.5C 141.5,45.8333 141.5,92.1667 141.5,138.5C 94.1667,138.5 46.8333,138.5 -0.5,138.5C -0.5,92.1667 -0.5,45.8333 -0.5,-0.5 Z"/></g>
<g><path style="opacity:1" fill="#efded7" d="M 90.5,54.5 C 88.0569,58.2761 84.7236,60.9428 80.5,62.5C 68.9278,64.1299 61.0945,59.4632 57,48.5C 53.5758,37.2767 55.4092,27.1101 62.5,18C 77.083,10.0243 87.583,13.8576 94,29.5C 94.6667,35.1667 94.6667,40.8333 94,46.5C 93.3042,49.4376 92.1375,52.1043 90.5,54.5 Z"/></g>
<g><path style="opacity:1" fill="#181615" d="M 92.5,54.5 C 91.8333,54.5 91.1667,54.5 90.5,54.5C 92.1375,52.1043 93.3042,49.4376 94,46.5C 94.6667,40.8333 94.6667,35.1667 94,29.5C 87.583,13.8576 77.083,10.0243 62.5,18C 55.4092,27.1101 53.5758,37.2767 57,48.5C 61.0945,59.4632 68.9278,64.1299 80.5,62.5C 80.5,63.1667 80.8333,63.5 81.5,63.5C 79.7165,64.455 77.7165,65.1217 75.5,65.5C 72.2151,64.3406 68.8818,63.8406 65.5,64C 67.3146,64.7568 68.9812,65.5902 70.5,66.5C 70.5,66.8333 70.5,67.1667 70.5,67.5C 67.9649,66.6513 65.4649,65.6513 63,64.5C 56.6006,65.8545 50.6006,68.1878 45,71.5C 39.4887,85.0491 35.4887,99.0491 33,113.5C 32.2225,118.335 32.7225,123.002 34.5,127.5C 34.5,128.167 34.5,128.833 34.5,129.5C 33.2101,128.942 32.3768,127.942 32,126.5C 31.5931,123.318 31.0931,120.151 30.5,117C 33.1098,101.839 36.9432,87.0061 42,72.5C 42.9299,70.4476 44.4299,68.9476 46.5,68C 52.3634,65.6011 58.3634,63.6011 64.5,62C 62.6667,60.1667 60.8333,58.3333 59,56.5C 56.8829,51.3681 54.0496,46.8681 50.5,43C 50.4683,41.0289 51.3016,39.5289 53,38.5C 52.794,26.053 58.294,17.2197 69.5,12C 80.7516,10.2088 88.9183,14.3755 94,24.5C 95.4045,30.0981 97.2379,35.4315 99.5,40.5C 96.8707,45.0109 94.5374,49.6776 92.5,54.5 Z"/></g>
<g><path style="opacity:1" fill="#161515" d="M 64.5,39.5 C 68.1612,39.3501 69.1612,40.8501 67.5,44C 66.5509,44.6172 65.7175,44.4506 65,43.5C 64.51,42.2068 64.3433,40.8734 64.5,39.5 Z"/></g>
<g><path style="opacity:1" fill="#131110" d="M 83.5,40.5 C 86.1662,40.0658 87.3329,41.0658 87,43.5C 83.4034,45.0661 82.2368,44.0661 83.5,40.5 Z"/></g>
<g><path style="opacity:1" fill="#1c1a19" d="M 72.5,48.5 C 74.6626,49.3623 76.6626,49.6957 78.5,49.5C 78.1131,50.7199 77.2798,51.3865 76,51.5C 74.0503,51.2926 72.8836,50.2926 72.5,48.5 Z"/></g>
<g><path style="opacity:1" fill="#171615" d="M 67.5,52.5 C 71.9414,57.4766 76.7747,57.81 82,53.5C 82.1667,54 82.3333,54.5 82.5,55C 76.9591,59.8362 71.6257,59.5029 66.5,54C 67.056,53.6174 67.3893,53.1174 67.5,52.5 Z"/></g>
<g><path style="opacity:1" fill="#e8421e" d="M 70.5,67.5 C 77.2719,67.5463 83.9386,67.0463 90.5,66C 99.7054,69.8701 105.205,76.7034 107,86.5C 107.5,100.829 107.667,115.163 107.5,129.5C 104.833,129.5 102.167,129.5 99.5,129.5C 99.0102,115.465 98.0102,101.465 96.5,87.5C 96.1667,89.6667 95.8333,91.8333 95.5,94C 96.333,105.828 96.9997,117.661 97.5,129.5C 82.8333,129.5 68.1667,129.5 53.5,129.5C 52.7228,121.379 55.5561,114.712 62,109.5C 62.346,107.782 62.846,106.115 63.5,104.5C 69.2526,100.813 72.5859,95.6466 73.5,89C 73.5542,86.1449 72.8875,83.4782 71.5,81C 73.487,77.7682 73.8203,74.4349 72.5,71C 71.5,70.3333 70.5,70.3333 69.5,71C 67,74.1667 64.5,77.3333 62,80.5C 60.2111,78.771 58.0444,78.1043 55.5,78.5C 54.064,84.6843 52.8973,91.0176 52,97.5C 47.7398,99.3779 43.9065,101.878 40.5,105C 41,105.5 41.5,106 42,106.5C 45.4549,103.524 49.2883,101.19 53.5,99.5C 56.0426,100.689 58.5426,102.022 61,103.5C 61.6667,104.833 61.6667,106.167 61,107.5C 56.7134,112.575 52.5467,117.742 48.5,123C 45.9906,124.421 43.6572,126.088 41.5,128C 39.1152,128.556 36.7819,128.39 34.5,127.5C 32.7225,123.002 32.2225,118.335 33,113.5C 35.4887,99.0491 39.4887,85.0491 45,71.5C 50.6006,68.1878 56.6006,65.8545 63,64.5C 65.4649,65.6513 67.9649,66.6513 70.5,67.5 Z"/></g>
<g><path style="opacity:1" fill="#d3c5be" d="M 70.5,66.5 C 68.9812,65.5902 67.3146,64.7568 65.5,64C 68.8818,63.8406 72.2151,64.3406 75.5,65.5C 77.7165,65.1217 79.7165,64.455 81.5,63.5C 86.6642,63.2111 86.6642,64.0444 81.5,66C 77.8484,66.4986 74.1817,66.6653 70.5,66.5 Z"/></g>
<g><path style="opacity:1" fill="#110907" d="M 90.5,54.5 C 91.1667,54.5 91.8333,54.5 92.5,54.5C 91.0939,57.4135 89.0939,59.9135 86.5,62C 98.4864,65.6508 105.986,73.4841 109,85.5C 109.5,100.496 109.667,115.496 109.5,130.5C 90.1805,131.361 70.8472,131.694 51.5,131.5C 51.8134,128.753 51.48,126.086 50.5,123.5C 47.5,125.667 44.5,127.833 41.5,130C 39.1152,130.556 36.7819,130.39 34.5,129.5C 34.5,128.833 34.5,128.167 34.5,127.5C 36.7819,128.39 39.1152,128.556 41.5,128C 43.6572,126.088 45.9906,124.421 48.5,123C 52.5467,117.742 56.7134,112.575 61,107.5C 61.6667,106.167 61.6667,104.833 61,103.5C 58.5426,102.022 56.0426,100.689 53.5,99.5C 49.2883,101.19 45.4549,103.524 42,106.5C 41.5,106 41,105.5 40.5,105C 43.9065,101.878 47.7398,99.3779 52,97.5C 52.8973,91.0176 54.064,84.6843 55.5,78.5C 58.0444,78.1043 60.2111,78.771 62,80.5C 64.5,77.3333 67,74.1667 69.5,71C 70.5,70.3333 71.5,70.3333 72.5,71C 73.8203,74.4349 73.487,77.7682 71.5,81C 72.8875,83.4782 73.5542,86.1449 73.5,89C 72.5859,95.6466 69.2526,100.813 63.5,104.5C 62.846,106.115 62.346,107.782 62,109.5C 55.5561,114.712 52.7228,121.379 53.5,129.5C 68.1667,129.5 82.8333,129.5 97.5,129.5C 96.9997,117.661 96.333,105.828 95.5,94C 95.8333,91.8333 96.1667,89.6667 96.5,87.5C 98.0102,101.465 99.0102,115.465 99.5,129.5C 102.167,129.5 104.833,129.5 107.5,129.5C 107.667,115.163 107.5,100.829 107,86.5C 105.205,76.7034 99.7054,69.8701 90.5,66C 83.9386,67.0463 77.2719,67.5463 70.5,67.5C 70.5,67.1667 70.5,66.8333 70.5,66.5C 74.1817,66.6653 77.8484,66.4986 81.5,66C 86.6642,64.0444 86.6642,63.2111 81.5,63.5C 80.8333,63.5 80.5,63.1667 80.5,62.5C 84.7236,60.9428 88.0569,58.2761 90.5,54.5 Z"/></g>
<g><path style="opacity:1" fill="#ead9d3" d="M 70.5,72.5 C 71.8552,75.8888 71.1886,79.0555 68.5,82C 71.4285,85.2572 72.2618,89.0906 71,93.5C 69.2068,96.2953 67.0402,98.7953 64.5,101C 56.6393,101.134 53.4727,97.3009 55,89.5C 56.5998,86.6657 57.7664,83.6657 58.5,80.5C 59.1867,82.2744 60.0201,83.9411 61,85.5C 64.1759,81.1372 67.3426,76.8039 70.5,72.5 Z"/></g>
</svg>
